<?xml version="1.0" ?>
<svg fill="#bcc7d2" title="calendar" xmlns="http://www.w3.org/2000/svg" viewBox="0 0 64 64" width="512" height="512">
  <g id="Calendar">
    <path d="M59,6H54V5a3,3,0,0,0-3-3H49a3,3,0,0,0-3,3V6H18V5a3,3,0,0,0-3-3H13a3,3,0,0,0-3,3V6H5A3,3,0,0,0,2,9V59a3,3,0,0,0,3,3H59a3,3,0,0,0,3-3V9A3,3,0,0,0,59,6ZM48,5a1,1,0,0,1,1-1h2a1,1,0,0,1,1,1v6a1,1,0,0,1-1,1H49a1,1,0,0,1-1-1ZM12,5a1,1,0,0,1,1-1h2a1,1,0,0,1,1,1v6a1,1,0,0,1-1,1H13a1,1,0,0,1-1-1ZM4,9A1,1,0,0,1,5,8h5v3a3,3,0,0,0,3,3h2a3,3,0,0,0,3-3V8H46v3a3,3,0,0,0,3,3h2a3,3,0,0,0,3-3V8h5a1,1,0,0,1,1,1v7H4ZM60,59a1,1,0,0,1-1,1H5a1,1,0,0,1-1-1V18H60Z" />
    <path d="M34,42H30a1,1,0,0,1-1-1V37a1,1,0,0,1,1-1h4a1,1,0,0,1,1,1v4A1,1,0,0,1,34,42Zm-3-2h2V38H31Z" />
    <path d="M44,42H40a1,1,0,0,1-1-1V37a1,1,0,0,1,1-1h4a1,1,0,0,1,1,1v4A1,1,0,0,1,44,42Zm-3-2h2V38H41Z" />
    <path d="M24,42H20a1,1,0,0,1-1-1V37a1,1,0,0,1,1-1h4a1,1,0,0,1,1,1v4A1,1,0,0,1,24,42Zm-3-2h2V38H21Z" />
    <path d="M54,42H50a1,1,0,0,1-1-1V37a1,1,0,0,1,1-1h4a1,1,0,0,1,1,1v4A1,1,0,0,1,54,42Zm-3-2h2V38H51Z" />
    <path d="M14,42H10a1,1,0,0,1-1-1V37a1,1,0,0,1,1-1h4a1,1,0,0,1,1,1v4A1,1,0,0,1,14,42Zm-3-2h2V38H11Z" />
    <path d="M34,32H30a1,1,0,0,1-1-1V27a1,1,0,0,1,1-1h4a1,1,0,0,1,1,1v4A1,1,0,0,1,34,32Zm-3-2h2V28H31Z" />
    <path d="M44,32H40a1,1,0,0,1-1-1V27a1,1,0,0,1,1-1h4a1,1,0,0,1,1,1v4A1,1,0,0,1,44,32Zm-3-2h2V28H41Z" />
    <path d="M24,32H20a1,1,0,0,1-1-1V27a1,1,0,0,1,1-1h4a1,1,0,0,1,1,1v4A1,1,0,0,1,24,32Zm-3-2h2V28H21Z" />
    <path d="M54,32H50a1,1,0,0,1-1-1V27a1,1,0,0,1,1-1h4a1,1,0,0,1,1,1v4A1,1,0,0,1,54,32Zm-3-2h2V28H51Z" />
    <path d="M14,32H10a1,1,0,0,1-1-1V27a1,1,0,0,1,1-1h4a1,1,0,0,1,1,1v4A1,1,0,0,1,14,32Zm-3-2h2V28H11Z" />
    <path d="M34,52H30a1,1,0,0,1-1-1V47a1,1,0,0,1,1-1h4a1,1,0,0,1,1,1v4A1,1,0,0,1,34,52Zm-3-2h2V48H31Z" />
    <path d="M44,52H40a1,1,0,0,1-1-1V47a1,1,0,0,1,1-1h4a1,1,0,0,1,1,1v4A1,1,0,0,1,44,52Zm-3-2h2V48H41Z" />
    <path d="M24,52H20a1,1,0,0,1-1-1V47a1,1,0,0,1,1-1h4a1,1,0,0,1,1,1v4A1,1,0,0,1,24,52Zm-3-2h2V48H21Z" />
    <path d="M54,52H50a1,1,0,0,1-1-1V47a1,1,0,0,1,1-1h4a1,1,0,0,1,1,1v4A1,1,0,0,1,54,52Zm-3-2h2V48H51Z" />
    <path d="M14,52H10a1,1,0,0,1-1-1V47a1,1,0,0,1,1-1h4a1,1,0,0,1,1,1v4A1,1,0,0,1,14,52Zm-3-2h2V48H11Z" />
  </g>
</svg>
