<svg id="Capa_1" enable-background="new 0 0 512 512" height="512" viewBox="0 0 512 512" width="512" xmlns="http://www.w3.org/2000/svg"><g><g><g><g><g><g><g><g><circle cx="256" cy="256" fill="#ffce00" r="256"/></g></g></g></g></g></g></g><path d="m512 256c0-17.683-1.793-34.947-5.207-51.62l-86.047-86.047-4.192 6.619-33.023-33.023-26.915 81.164-81.164-81.164-10.089 97.99-97.99-97.99-76.12 325.238 80.725 80.725c26.319 9.141 54.591 14.108 84.022 14.108 141.385 0 256-114.615 256-256z" fill="#ffa300"/><g><g><path d="m91.253 158.216h329.493v258.951h-329.493z" fill="#fff"/></g></g><g><g><path d="m256.121 158.216h164.626v258.951h-164.626z" fill="#e9edf5"/></g></g><g><g><path d="m91.253 118.333h329.493v59.523h-329.493z" fill="#fe6a16"/></g></g><g><g><path d="m256.121 118.333h164.626v59.523h-164.626z" fill="#f24500"/></g></g><g><g><g><g><path d="m128.468 203.556h45.412v45.412h-45.412z" fill="#dce1eb"/></g></g><g><g><path d="m128.468 337.925h45.412v45.412h-45.412z" fill="#dce1eb"/></g></g><g><g><path d="m128.468 270.741h45.412v45.412h-45.412z" fill="#dce1eb"/></g></g></g><g><g><g><path d="m198.352 203.556h45.412v45.412h-45.412z" fill="#dce1eb"/></g></g><g><g><path d="m198.352 337.925h45.412v45.412h-45.412z" fill="#dce1eb"/></g></g><g><g><path d="m198.352 270.741h45.412v45.412h-45.412z" fill="#dce1eb"/></g></g></g><g><g><g><path d="m268.236 203.556h45.412v45.412h-45.412z" fill="#bec3d2"/></g></g><g><g><path d="m268.236 337.925h45.412v45.412h-45.412z" fill="#bec3d2"/></g></g><g><g><path d="m268.236 270.741h45.412v45.412h-45.412z" fill="#bec3d2"/></g></g></g><g><g><g><path d="m338.12 203.556h45.412v45.412h-45.412z" fill="#bec3d2"/></g></g><g><g><path d="m338.12 337.925h45.412v45.412h-45.412z" fill="#bec3d2"/></g></g><g><g><path d="m338.12 270.741h45.412v45.412h-45.412z" fill="#bec3d2"/></g></g></g></g><g><g><path d="m128.468 91.929h38.906v56.165h-38.906z" fill="#555a66"/></g></g><g><g><path d="m344.625 91.929h38.906v56.165h-38.906z" fill="#333940"/></g></g><g><g><path d="m236.547 91.929h38.906v56.165h-38.906z" fill="#555a66"/></g></g><g><g><path d="m256.121 91.929h19.333v56.166h-19.333z" fill="#333940"/></g></g></g></svg>