<svg height="512pt" viewBox="-13 0 511 512" width="512pt" xmlns="http://www.w3.org/2000/svg"><path d="m242.671875 50.527344c-4.265625 0-7.71875-3.453125-7.71875-7.71875v-35.089844c0-4.261719 3.453125-7.71875 7.71875-7.71875 4.261719 0 7.71875 3.457031 7.71875 7.71875v35.089844c0 4.265625-3.457031 7.71875-7.71875 7.71875zm0 0" fill="#acb8d1"/><path d="m264.222656 96.628906h-43.105468v-38.386718c0-8.523438 6.910156-15.433594 15.433593-15.433594h12.238281c8.523438 0 15.433594 6.910156 15.433594 15.433594zm0 0" fill="#c7cfe2"/><path d="m248.371094 42.808594h-11.398438c-1.777344 0-3.484375.304687-5.078125.84375 6.261719 2.121094 10.777344 8.03125 10.777344 15.007812v37.96875h21.550781v-37.96875c0-8.753906-7.097656-15.851562-15.851562-15.851562zm0 0" fill="#acb8d1"/><path d="m154.949219 180.46875c0-48.449219 39.273437-87.722656 87.722656-87.722656 48.445313 0 87.71875 39.273437 87.71875 87.722656" fill="#eff2fa"/><path d="m242.671875 92.746094c-5.832031 0-11.527344.582031-17.042969 1.667968 40.289063 7.9375 70.679688 43.4375 70.679688 86.054688h34.082031c0-48.449219-39.273437-87.722656-87.71875-87.722656zm0 0" fill="#d7deed"/><path d="m349.816406 234.390625h-214.289062v-47.84375c0-8.203125 6.648437-14.851563 14.851562-14.851563h184.585938c8.203125 0 14.851562 6.648438 14.851562 14.851563zm0 0" fill="#acb8d1"/><path d="m367.515625 248.386719v68h-249.691406v-68c0-7.730469 6.269531-14 13.988281-14h221.714844c7.730468 0 13.988281 6.269531 13.988281 14zm0 0" fill="#c7cfe2"/><path d="m367.515625 293.023438v23.363281h-249.691406v-23.363281l124.84375-38.082032zm0 0" fill="#acb8d1"/><path d="m367.515625 306.144531v151.933594h-249.691406v-151.933594l124.84375-38.082031zm0 0" fill="#eff2fa"/><path d="m117.824219 316.386719v141.691406h-88.535157v-128.46875c0-7.304687 5.917969-13.222656 13.226563-13.222656zm0 0" fill="#c7cfe2"/><path d="m456.046875 329.609375v128.46875h-88.53125v-141.691406h75.316406c7.296875 0 13.214844 5.917969 13.214844 13.222656zm0 0" fill="#c7cfe2"/><path d="m.5 512v-26.132812c0-15.347657 12.441406-27.789063 27.789062-27.789063h428.765626c15.347656 0 27.789062 12.441406 27.789062 27.789063v26.132812" fill="#4f495b"/><path d="m125.542969 349.9375c0 4.273438-3.457031 7.71875-7.71875 7.71875h-88.535157v-15.4375h88.535157c4.261719 0 7.71875 3.457031 7.71875 7.71875zm0 0" fill="#acb8d1"/><path d="m456.046875 342.21875v15.4375h-88.53125c-4.261719 0-7.722656-3.445312-7.722656-7.71875 0-4.261719 3.460937-7.71875 7.722656-7.71875zm0 0" fill="#acb8d1"/><path d="m367.519531 357.664062h-248.804687c-4.261719 0-7.71875-3.457031-7.71875-7.71875 0-4.265624 3.457031-7.722656 7.71875-7.722656h248.804687c4.261719 0 7.71875 3.457032 7.71875 7.722656 0 4.261719-3.457031 7.71875-7.71875 7.71875zm0 0" fill="#c7cfe2"/><path d="m179.539062 326.757812c-3.3125 0-6.375-2.148437-7.386718-5.484374-1.238282-4.078126 1.066406-8.386719 5.148437-9.625l63.671875-19.304688c1.445313-.4375 2.980469-.445312 4.425782-.015625l65.371093 19.304687c4.085938 1.207032 6.425781 5.5 5.214844 9.589844-1.207031 4.085938-5.5 6.425782-9.589844 5.214844l-63.152343-18.652344-61.460938 18.636719c-.746094.226563-1.503906.335937-2.242188.335937zm0 0" fill="#acb8d1"/><path d="m175.480469 349.9375v108.140625h-15.4375v-108.140625c0-4.261719 3.457031-7.71875 7.71875-7.71875s7.71875 3.457031 7.71875 7.71875zm0 0" fill="#c7cfe2"/><path d="m225.417969 349.9375v108.140625h-15.4375v-108.140625c0-4.261719 3.457031-7.71875 7.71875-7.71875s7.71875 3.457031 7.71875 7.71875zm0 0" fill="#c7cfe2"/><path d="m275.359375 349.9375v108.140625h-15.441406v-108.140625c0-4.261719 3.460937-7.71875 7.722656-7.71875 4.257813 0 7.71875 3.457031 7.71875 7.71875zm0 0" fill="#c7cfe2"/><path d="m325.296875 349.9375v108.140625h-15.441406v-108.140625c0-4.261719 3.460937-7.71875 7.722656-7.71875 4.269531 0 7.71875 3.457031 7.71875 7.71875zm0 0" fill="#c7cfe2"/><g fill="#fff"><path d="m166.136719 217.726562c-4.261719 0-7.71875-3.453124-7.71875-7.71875v-11.226562c0-4.265625 3.457031-7.71875 7.71875-7.71875 4.265625 0 7.722656 3.453125 7.722656 7.71875v11.226562c0 4.265626-3.457031 7.71875-7.722656 7.71875zm0 0"/><path d="m196.75 217.726562c-4.261719 0-7.71875-3.453124-7.71875-7.71875v-11.226562c0-4.265625 3.457031-7.71875 7.71875-7.71875 4.265625 0 7.71875 3.453125 7.71875 7.71875v11.226562c0 4.265626-3.453125 7.71875-7.71875 7.71875zm0 0"/><path d="m227.363281 217.726562c-4.261719 0-7.71875-3.453124-7.71875-7.71875v-11.226562c0-4.265625 3.457031-7.71875 7.71875-7.71875 4.265625 0 7.71875 3.453125 7.71875 7.71875v11.226562c.003907 4.265626-3.453125 7.71875-7.71875 7.71875zm0 0"/><path d="m257.976562 217.726562c-4.261718 0-7.71875-3.453124-7.71875-7.71875v-11.226562c0-4.265625 3.457032-7.71875 7.71875-7.71875 4.261719 0 7.71875 3.453125 7.71875 7.71875v11.226562c0 4.265626-3.457031 7.71875-7.71875 7.71875zm0 0"/><path d="m288.589844 217.726562c-4.261719 0-7.71875-3.453124-7.71875-7.71875v-11.226562c0-4.265625 3.457031-7.71875 7.71875-7.71875 4.265625 0 7.71875 3.453125 7.71875 7.71875v11.226562c0 4.265626-3.457032 7.71875-7.71875 7.71875zm0 0"/><path d="m319.203125 217.726562c-4.261719 0-7.71875-3.453124-7.71875-7.71875v-11.226562c0-4.265625 3.457031-7.71875 7.71875-7.71875s7.71875 3.453125 7.71875 7.71875v11.226562c0 4.265626-3.457031 7.71875-7.71875 7.71875zm0 0"/></g></svg>